<?xml version="1.0" encoding="UTF-8" standalone="no"?>
<!-- Created with Inkscape (http://www.inkscape.org/) -->

<svg
   width="20mm"
   height="31mm"
   viewBox="0 0 20 31"
   version="1.1"
   id="svg1"
   inkscape:version="1.4 (86a8ad7, 2024-10-11)"
   sodipodi:docname="dessin.svg"
   xmlns:inkscape="http://www.inkscape.org/namespaces/inkscape"
   xmlns:sodipodi="http://sodipodi.sourceforge.net/DTD/sodipodi-0.dtd"
   xmlns="http://www.w3.org/2000/svg"
   xmlns:svg="http://www.w3.org/2000/svg">
  <sodipodi:namedview
     id="namedview1"
     pagecolor="#ffffff"
     bordercolor="#111111"
     borderopacity="1"
     inkscape:showpageshadow="0"
     inkscape:pageopacity="0"
     inkscape:pagecheckerboard="1"
     inkscape:deskcolor="#d1d1d1"
     inkscape:document-units="mm"
     inkscape:zoom="4.0668163"
     inkscape:cx="77.947951"
     inkscape:cy="63.071449"
     inkscape:window-width="1920"
     inkscape:window-height="1009"
     inkscape:window-x="-8"
     inkscape:window-y="-8"
     inkscape:window-maximized="1"
     inkscape:current-layer="layer1" />
  <defs
     id="defs1" />
  <g
     inkscape:label="Calque 1"
     id="layer1">
    <path
       style="fill:#000000;stroke-width:0.264583"
       id="path1"
       d="m 3.6062487,22.442057 c -0.02164,-1.42958 0.08848,-2.86316 0.342331,-4.27079 0.08424,-0.46711 0.193773,-0.92929 0.290661,-1.39394 0.492336,-1.92708 1.130474,-3.83736 2.113298,-5.57529 0.152869,-0.27031 0.324295,-0.52971 0.486439,-0.79456 0.5862564,-0.8006801 1.1703824,-1.6630201 2.0113894,-2.2237701 0.486479,-0.32436 0.63676,-0.32918 1.2002479,-0.51394 1.128652,-0.20886 2.2674,-0.0625 3.341854,0.32768 0.286732,0.10412 1.097511,0.52666 0.840058,0.36304 -0.776896,-0.49375 -1.603232,-0.90501 -2.404851,-1.35752 0.984321,0.67405 1.832044,1.59339 2.068452,2.80128 0.03787,0.19351 0.03557,0.3927501 0.05336,0.5891201 -0.0293,0.79478 -0.318762,1.51605 -0.919871,2.05342 -0.388872,0.34764 -0.592966,0.4084 -1.055825,0.63582 -0.504717,0.16342 -0.71696,0.26847 -1.254803,0.29621 -0.9281709,0.0479 -1.7899319,-0.25216 -2.6331379,-0.59524 -0.176419,-0.0934 -0.354505,-0.18376 -0.529252,-0.28026 -0.150907,-0.0833 -0.597357,-0.34446 -0.44754,-0.25918 0.981695,0.55878 1.958002,1.12706 2.9431699,1.67969 0.159898,0.0897 -0.3031919,-0.20633 -0.4514589,-0.31417 0,0 -3.6308454,-1.45529 -3.6308454,-1.45529 v 0 c 0.187248,0.16005 0.263956,0.23788 0.486677,0.36969 1.5067444,0.89173 2.9855724,1.88327 4.5998743,2.58462 0.207264,0.0708 0.411178,0.1523 0.621789,0.21242 1.223143,0.34914 2.277081,0.3363 3.452736,-0.16919 0.197718,-0.10908 0.404971,-0.20243 0.593154,-0.32724 0.745908,-0.49471 1.320501,-1.22164 1.523462,-2.10321 0.04788,-0.20795 0.05649,-0.42303 0.08474,-0.63455 -0.03236,-0.60334 -5.29e-4,-0.75069 -0.197763,-1.33858 -0.336971,-1.0042301 -1.026102,-1.7907201 -1.858904,-2.4214801 -1.312334,-0.7479 -2.605323,-1.5308 -3.937,-2.24368 -0.269986,-0.14454 -0.56733,-0.23282 -0.85965,-0.32409 -1.1497279,-0.35896 -2.3539289,-0.4682 -3.5326689,-0.19012 -0.6444144,0.23433 -0.7533694,0.21831 -1.2912354,0.61687 -0.839917,0.62237 -1.407798,1.53702 -1.994329,2.38085 -0.16025,0.2761 -0.331592,0.54605 -0.48075,0.82829 -0.949325,1.7963401 -1.519291,3.7668901 -2.02973,5.7229201 -0.0651,0.27892 -0.554795,2.36331 -0.61794,2.68615 -0.182504,0.93308 -0.265531,1.88436 -0.417319,2.82245 z" />
    <path
       style="fill:#000000;stroke-width:0.264583"
       id="path1-8"
       d="m 6.3097137,26.585087 c -0.02164,-1.42958 0.08848,-2.86316 0.342331,-4.27079 0.08424,-0.46711 0.193773,-0.92929 0.2906614,-1.39394 0.492336,-1.92708 1.130474,-3.83736 2.113298,-5.57529 0.152869,-0.27031 0.324295,-0.52971 0.486439,-0.79456 0.5862559,-0.80068 1.1703819,-1.66302 2.0113889,-2.22377 0.486479,-0.32436 0.63676,-0.32918 1.200248,-0.51394 1.128652,-0.20886 2.2674,-0.0625 3.341854,0.32768 0.286732,0.10412 1.097511,0.52666 0.840058,0.36304 -0.776896,-0.49375 -1.603232,-0.90501 -2.404851,-1.35752 0.984321,0.67405 1.832044,1.59339 2.068452,2.80128 0.03787,0.19351 0.03557,0.39275 0.05336,0.58912 -0.0293,0.79478 -0.318762,1.51605 -0.919871,2.05342 -0.388872,0.34764 -0.592966,0.4084 -1.055825,0.63582 -0.504717,0.16342 -0.71696,0.26847 -1.254803,0.29621 -0.928171,0.0479 -1.789932,-0.25216 -2.633138,-0.59524 -0.176419,-0.0934 -0.354505,-0.18376 -0.529252,-0.28026 -0.150907,-0.0833 -0.5973569,-0.34446 -0.4475402,-0.25918 0.9816952,0.55878 1.9580022,1.12706 2.9431702,1.67969 0.159898,0.0897 -0.303192,-0.20633 -0.451459,-0.31417 0,0 -3.6308449,-1.45529 -3.6308449,-1.45529 v 0 c 0.187248,0.16005 0.263956,0.23788 0.486677,0.36969 1.5067439,0.89173 2.9855719,1.88327 4.5998739,2.58462 0.207264,0.0708 0.411178,0.1523 0.621789,0.21242 1.223143,0.34914 2.277081,0.3363 3.452736,-0.16919 0.197718,-0.10908 0.404971,-0.20243 0.593154,-0.32724 0.745908,-0.49471 1.320501,-1.22164 1.523462,-2.10321 0.04788,-0.20795 0.05649,-0.42303 0.08474,-0.63455 -0.03236,-0.60334 -5.29e-4,-0.75069 -0.197763,-1.33858 -0.336971,-1.00423 -1.026102,-1.79072 -1.858904,-2.42148 -1.312334,-0.7479 -2.605323,-1.5308 -3.937,-2.24368 -0.269986,-0.14454 -0.56733,-0.2328201 -0.85965,-0.3240901 -1.149728,-0.35896 -2.353929,-0.4682 -3.5326689,-0.19012 -0.644414,0.23433 -0.753369,0.21831 -1.291235,0.6168701 -0.839917,0.62237 -1.407798,1.53702 -1.9943294,2.38085 -0.16025,0.2761 -0.331592,0.54605 -0.48075,0.82829 -0.949325,1.79634 -1.519291,3.76689 -2.02973,5.72292 -0.0651,0.27892 -0.554795,2.36331 -0.61794,2.68615 -0.182504,0.93308 -0.265531,1.88436 -0.417319,2.82245 z" />
    <path
       style="fill:#000000;stroke-width:0.264583"
       id="path3"
       d="m 6.6948967,0.13796965 c 0.03994,0.77874 0.04961,1.05760025 0.128175,1.95903025 0.06198,0.71115 0.1377554,1.42103 0.2048724,2.13171 0.26294,2.784177 0.517641,5.569177 0.775867,8.3538071 0.441118,4.79169 0.673721,9.59901 0.756306,14.40938 0.01281,1.58991 0.01109,0.84536 0.0082,2.23363 0,0 1.6328659,0.82753 1.6328659,0.82753 v 0 c -0.06381,-1.42207 -0.02889,-0.66025 -0.105463,-2.28543 -0.2510582,-4.84528 -0.5470229,-9.68861 -0.9632369,-14.52287 -0.139086,-1.64426 -0.350607,-4.0882601 -0.472786,-5.7494401 -0.142965,-1.94376 -0.283864,-3.894427 -0.247553,-5.845087 0.0039,-0.207 0.02238,-0.41346 0.03356,-0.62019 z" />
    <path
       style="fill:#000000;stroke-width:0.264583"
       id="path3-2"
       d="m 10.465365,0.63729965 c 0.03994,0.77874025 0.04961,1.05760025 0.128175,1.95903025 0.06198,0.71115 0.137755,1.42103 0.204872,2.131707 0.26294,2.78418 0.517641,5.5691801 0.775867,8.3538101 0.441118,4.79169 0.673721,9.59901 0.756306,14.40938 0.01281,1.58991 0.01109,0.84536 0.0082,2.23363 0,0 1.632866,0.82753 1.632866,0.82753 v 0 c -0.06381,-1.42207 -0.02889,-0.66025 -0.105463,-2.28543 -0.251058,-4.84528 -0.547023,-9.68861 -0.963237,-14.52287 -0.139086,-1.64426 -0.350607,-4.0882601 -0.472786,-5.7494401 -0.142965,-1.94376 -0.283864,-3.894427 -0.247553,-5.845087 0.0039,-0.207 0.02238,-0.41346 0.03356,-0.62019 z" />
  </g>
</svg>
